<svg xmlns="http://www.w3.org/2000/svg" xmlns:xlink="http://www.w3.org/1999/xlink" width="40" zoomAndPan="magnify" viewBox="0 0 30 30.000001" height="40" preserveAspectRatio="xMidYMid meet" version="1.0"><defs><g/><clipPath id="0adf0bb195"><path d="M 3.851562 1.566406 L 25.570312 1.566406 L 25.570312 9 L 3.851562 9 Z M 3.851562 1.566406 " clip-rule="nonzero"/></clipPath><clipPath id="b8f6319c67"><path d="M 3.894531 6.050781 C 3.894531 5.65625 4.03125 5.320312 4.304688 5.046875 C 4.578125 4.773438 4.917969 4.632812 5.320312 4.632812 L 8.085938 4.632812 C 8.429688 4.632812 8.726562 4.757812 8.980469 4.976562 C 9.234375 5.199219 9.394531 5.472656 9.453125 5.8125 L 10.667969 12.957031 L 10.765625 13.347656 L 10.808594 13.148438 L 11.617188 9.515625 C 11.695312 9.167969 11.8125 8.863281 12.082031 8.621094 C 12.351562 8.378906 12.671875 8.257812 13.03125 8.257812 L 16.011719 8.257812 C 16.375 8.257812 16.691406 8.378906 16.957031 8.621094 C 17.226562 8.863281 17.332031 9.167969 17.40625 9.515625 L 18.296875 13.558594 L 18.398438 12.957031 L 20.011719 2.789062 C 20.066406 2.453125 20.21875 2.179688 20.46875 1.957031 C 20.71875 1.734375 21.015625 1.613281 21.359375 1.613281 L 24.140625 1.613281 C 24.527344 1.613281 24.855469 1.753906 25.132812 2.03125 C 25.410156 2.308594 25.546875 2.644531 25.546875 3.03125 C 25.546875 3.128906 25.539062 3.214844 25.53125 3.28125 L 25.265625 4.972656 L 23.765625 14.726562 L 22.753906 21.902344 C 22.691406 22.34375 22.460938 22.695312 22.121094 22.976562 C 21.777344 23.257812 21.378906 23.398438 20.929688 23.398438 L 17.34375 23.398438 C 16.875 23.398438 16.460938 23.234375 16.101562 22.921875 C 15.746094 22.613281 15.515625 22.230469 15.472656 21.773438 L 14.917969 16.042969 L 14.917969 16.070312 C 14.917969 15.976562 14.882812 15.890625 14.804688 15.816406 C 14.734375 15.738281 14.644531 15.699219 14.542969 15.699219 C 14.449219 15.699219 14.367188 15.726562 14.300781 15.785156 C 14.234375 15.84375 14.199219 15.917969 14.1875 16 L 13.359375 21.929688 C 13.296875 22.367188 13.074219 22.722656 12.730469 23.003906 C 12.386719 23.285156 11.988281 23.425781 11.535156 23.425781 L 7.953125 23.425781 C 7.488281 23.425781 7.078125 23.265625 6.726562 22.964844 C 6.378906 22.664062 6.148438 22.292969 6.082031 21.847656 C 4.757812 13.003906 3.894531 6.144531 3.894531 6.050781 " clip-rule="nonzero"/></clipPath><clipPath id="c20d7cab53"><path d="M 3.851562 1.566406 L 25.570312 1.566406 L 25.570312 11 L 3.851562 11 Z M 3.851562 1.566406 " clip-rule="nonzero"/></clipPath><clipPath id="bcb2981353"><path d="M 3.894531 6.050781 C 3.894531 5.65625 4.03125 5.320312 4.304688 5.046875 C 4.578125 4.773438 4.917969 4.632812 5.320312 4.632812 L 8.085938 4.632812 C 8.429688 4.632812 8.726562 4.757812 8.980469 4.976562 C 9.234375 5.199219 9.394531 5.472656 9.453125 5.8125 L 10.667969 12.957031 L 10.765625 13.347656 L 10.808594 13.148438 L 11.617188 9.515625 C 11.695312 9.167969 11.8125 8.863281 12.082031 8.621094 C 12.351562 8.378906 12.671875 8.257812 13.03125 8.257812 L 16.011719 8.257812 C 16.375 8.257812 16.691406 8.378906 16.957031 8.621094 C 17.226562 8.863281 17.332031 9.167969 17.40625 9.515625 L 18.296875 13.558594 L 18.398438 12.957031 L 20.011719 2.789062 C 20.066406 2.453125 20.21875 2.179688 20.46875 1.957031 C 20.71875 1.734375 21.015625 1.613281 21.359375 1.613281 L 24.140625 1.613281 C 24.527344 1.613281 24.855469 1.753906 25.132812 2.03125 C 25.410156 2.308594 25.546875 2.644531 25.546875 3.03125 C 25.546875 3.128906 25.539062 3.214844 25.53125 3.28125 L 25.265625 4.972656 L 23.765625 14.726562 L 22.753906 21.902344 C 22.691406 22.34375 22.460938 22.695312 22.121094 22.976562 C 21.777344 23.257812 21.378906 23.398438 20.929688 23.398438 L 17.34375 23.398438 C 16.875 23.398438 16.460938 23.234375 16.101562 22.921875 C 15.746094 22.613281 15.515625 22.230469 15.472656 21.773438 L 14.917969 16.042969 L 14.917969 16.070312 C 14.917969 15.976562 14.882812 15.890625 14.804688 15.816406 C 14.734375 15.738281 14.644531 15.699219 14.542969 15.699219 C 14.449219 15.699219 14.367188 15.726562 14.300781 15.785156 C 14.234375 15.84375 14.199219 15.917969 14.1875 16 L 13.359375 21.929688 C 13.296875 22.367188 13.074219 22.722656 12.730469 23.003906 C 12.386719 23.285156 11.988281 23.425781 11.535156 23.425781 L 7.953125 23.425781 C 7.488281 23.425781 7.078125 23.265625 6.726562 22.964844 C 6.378906 22.664062 6.148438 22.292969 6.082031 21.847656 C 4.757812 13.003906 3.894531 6.144531 3.894531 6.050781 " clip-rule="nonzero"/></clipPath><clipPath id="56a4fdca50"><path d="M 3.851562 1.566406 L 25.570312 1.566406 L 25.570312 9 L 3.851562 9 Z M 3.851562 1.566406 " clip-rule="nonzero"/></clipPath><clipPath id="cd12c4d313"><path d="M 3.894531 6.050781 C 3.894531 5.65625 4.03125 5.320312 4.304688 5.046875 C 4.578125 4.773438 4.917969 4.632812 5.320312 4.632812 L 8.085938 4.632812 C 8.429688 4.632812 8.726562 4.757812 8.980469 4.976562 C 9.234375 5.199219 9.394531 5.472656 9.453125 5.8125 L 10.667969 12.957031 L 10.765625 13.347656 L 10.808594 13.148438 L 11.617188 9.515625 C 11.695312 9.167969 11.8125 8.863281 12.082031 8.621094 C 12.351562 8.378906 12.671875 8.257812 13.03125 8.257812 L 16.011719 8.257812 C 16.375 8.257812 16.691406 8.378906 16.957031 8.621094 C 17.226562 8.863281 17.332031 9.167969 17.40625 9.515625 L 18.296875 13.558594 L 18.398438 12.957031 L 20.011719 2.789062 C 20.066406 2.453125 20.21875 2.179688 20.46875 1.957031 C 20.71875 1.734375 21.015625 1.613281 21.359375 1.613281 L 24.140625 1.613281 C 24.527344 1.613281 24.855469 1.753906 25.132812 2.03125 C 25.410156 2.308594 25.546875 2.644531 25.546875 3.03125 C 25.546875 3.128906 25.539062 3.214844 25.53125 3.28125 L 25.265625 4.972656 L 23.765625 14.726562 L 22.753906 21.902344 C 22.691406 22.34375 22.460938 22.695312 22.121094 22.976562 C 21.777344 23.257812 21.378906 23.398438 20.929688 23.398438 L 17.34375 23.398438 C 16.875 23.398438 16.460938 23.234375 16.101562 22.921875 C 15.746094 22.613281 15.515625 22.230469 15.472656 21.773438 L 14.917969 16.042969 L 14.917969 16.070312 C 14.917969 15.976562 14.882812 15.890625 14.804688 15.816406 C 14.734375 15.738281 14.644531 15.699219 14.542969 15.699219 C 14.449219 15.699219 14.367188 15.726562 14.300781 15.785156 C 14.234375 15.84375 14.199219 15.917969 14.1875 16 L 13.359375 21.929688 C 13.296875 22.367188 13.074219 22.722656 12.730469 23.003906 C 12.386719 23.285156 11.988281 23.425781 11.535156 23.425781 L 7.953125 23.425781 C 7.488281 23.425781 7.078125 23.265625 6.726562 22.964844 C 6.378906 22.664062 6.148438 22.292969 6.082031 21.847656 C 4.757812 13.003906 3.894531 6.144531 3.894531 6.050781 " clip-rule="nonzero"/></clipPath><clipPath id="d2f44b0080"><path d="M 3.851562 1.566406 L 25.570312 1.566406 L 25.570312 11 L 3.851562 11 Z M 3.851562 1.566406 " clip-rule="nonzero"/></clipPath><clipPath id="75699283eb"><path d="M 3.894531 6.050781 C 3.894531 5.65625 4.03125 5.320312 4.304688 5.046875 C 4.578125 4.773438 4.917969 4.632812 5.320312 4.632812 L 8.085938 4.632812 C 8.429688 4.632812 8.726562 4.757812 8.980469 4.976562 C 9.234375 5.199219 9.394531 5.472656 9.453125 5.8125 L 10.667969 12.957031 L 10.765625 13.347656 L 10.808594 13.148438 L 11.617188 9.515625 C 11.695312 9.167969 11.8125 8.863281 12.082031 8.621094 C 12.351562 8.378906 12.671875 8.257812 13.03125 8.257812 L 16.011719 8.257812 C 16.375 8.257812 16.691406 8.378906 16.957031 8.621094 C 17.226562 8.863281 17.332031 9.167969 17.40625 9.515625 L 18.296875 13.558594 L 18.398438 12.957031 L 20.011719 2.789062 C 20.066406 2.453125 20.21875 2.179688 20.46875 1.957031 C 20.71875 1.734375 21.015625 1.613281 21.359375 1.613281 L 24.140625 1.613281 C 24.527344 1.613281 24.855469 1.753906 25.132812 2.03125 C 25.410156 2.308594 25.546875 2.644531 25.546875 3.03125 C 25.546875 3.128906 25.539062 3.214844 25.53125 3.28125 L 25.265625 4.972656 L 23.765625 14.726562 L 22.753906 21.902344 C 22.691406 22.34375 22.460938 22.695312 22.121094 22.976562 C 21.777344 23.257812 21.378906 23.398438 20.929688 23.398438 L 17.34375 23.398438 C 16.875 23.398438 16.460938 23.234375 16.101562 22.921875 C 15.746094 22.613281 15.515625 22.230469 15.472656 21.773438 L 14.917969 16.042969 L 14.917969 16.070312 C 14.917969 15.976562 14.882812 15.890625 14.804688 15.816406 C 14.734375 15.738281 14.644531 15.699219 14.542969 15.699219 C 14.449219 15.699219 14.367188 15.726562 14.300781 15.785156 C 14.234375 15.84375 14.199219 15.917969 14.1875 16 L 13.359375 21.929688 C 13.296875 22.367188 13.074219 22.722656 12.730469 23.003906 C 12.386719 23.285156 11.988281 23.425781 11.535156 23.425781 L 7.953125 23.425781 C 7.488281 23.425781 7.078125 23.265625 6.726562 22.964844 C 6.378906 22.664062 6.148438 22.292969 6.082031 21.847656 C 4.757812 13.003906 3.894531 6.144531 3.894531 6.050781 " clip-rule="nonzero"/></clipPath></defs><path stroke-linecap="butt" transform="matrix(0.057302, 0, 0, -0.0568996, -3.196339, 40.543053)" fill="none" stroke-linejoin="miter" d="M 289.465813 310.51273 C 287.488896 307.698014 285.102962 305.157904 282.308011 302.892401 C 275.013869 296.91971 266.560845 293.899039 257.085278 293.899039 L 227.976882 293.899039 L 223.75037 270.420187 C 222.386979 262.662555 218.842163 255.934697 212.979582 250.717174 C 206.912492 245.293697 199.61835 242.410329 191.506174 242.410329 L 142.969457 242.410329 C 133.766568 242.410329 125.790731 245.911561 119.314624 252.433465 C 112.906687 258.955368 109.49821 267.056258 109.49821 276.186923 C 109.49821 278.109168 109.634549 280.100065 109.907227 282.02231 L 114.610926 311.885762 L 138.06125 445.481803 C 134.380094 471.70672 130.835278 497.931636 127.290461 524.087901 C 124.700018 543.790914 122.109576 563.425276 119.587302 583.128289 C 118.905607 588.483115 118.223912 593.906593 117.542216 599.33007 C 117.337707 601.320967 116.860521 604.204335 116.860521 606.195232 C 116.860521 614.845335 119.92815 622.534316 125.99524 628.712961 C 132.130499 634.960258 139.901827 637.980929 148.627529 637.980929 L 196.891569 637.980929 C 204.526558 637.980929 211.343512 635.303516 217.069754 630.223297 C 221.364436 626.447458 224.500235 621.8478 226.340813 616.561625 L 264.106742 616.561625 C 274.468513 616.424322 283.739571 612.785787 291.579069 605.920625 C 299.282228 599.124115 304.054096 590.542664 305.485657 580.244922 L 306.167352 574.272231 L 323.346078 574.272231 L 324.777638 582.853683 C 326.413707 592.602212 331.253745 600.771754 338.888734 607.087703 C 346.523724 613.403651 355.453934 616.561625 365.338519 616.561625 L 390.62942 616.561625 L 398.19624 664.549104 C 399.355122 671.963478 402.7636 678.348078 408.421672 683.290994 C 414.079745 688.371214 420.896699 691.117278 428.531688 691.117278 L 477.068406 691.117278 C 485.725938 691.117278 493.224588 687.822001 499.291678 681.712007 C 505.358768 675.533362 508.562736 667.913033 508.562736 659.262929 C 508.562736 657.477987 508.426397 655.624394 508.153719 653.839452 L 503.51819 624.113303 L 482.862817 489.006927 C 486.95299 461.271674 491.043163 433.467771 495.065166 405.663867 C 497.246592 390.835118 499.359848 376.00637 501.541273 361.177621 C 502.086629 357.333131 502.631986 353.557292 503.109173 349.712802 C 503.381851 348.065163 503.722699 345.936963 503.722699 344.289324 C 503.722699 335.090008 500.45056 326.920466 493.974453 320.329911 C 487.498346 313.739356 479.249831 310.51273 469.978773 310.51273 L 453.004556 310.51273 C 451.095808 307.903969 448.778044 305.569814 446.255771 303.372962 C 438.961629 297.33162 430.440436 294.379601 421.033038 294.379601 L 358.453394 294.379601 C 348.500641 294.379601 339.638599 297.949485 332.208119 304.471388 C 330.094863 306.324982 328.186116 308.315878 326.481877 310.51273 Z M 289.465813 310.51273 " stroke="#00b0f0" stroke-width="0.567" stroke-opacity="1" stroke-miterlimit="22.926001"/><path fill="#00b0f0" d="M 3.894531 6.050781 C 3.894531 5.65625 4.03125 5.320312 4.304688 5.046875 C 4.578125 4.773438 4.917969 4.632812 5.320312 4.632812 L 8.085938 4.632812 C 8.429688 4.632812 8.726562 4.757812 8.980469 4.976562 C 9.234375 5.199219 9.394531 5.472656 9.453125 5.8125 L 10.667969 12.957031 L 10.765625 13.347656 L 10.808594 13.148438 L 11.617188 9.515625 C 11.695312 9.167969 11.8125 8.863281 12.082031 8.621094 C 12.351562 8.378906 12.671875 8.257812 13.03125 8.257812 L 16.011719 8.257812 C 16.375 8.257812 16.691406 8.378906 16.957031 8.621094 C 17.226562 8.863281 17.332031 9.167969 17.40625 9.515625 L 18.296875 13.558594 L 18.398438 12.957031 L 20.011719 2.789062 C 20.066406 2.453125 20.21875 2.179688 20.46875 1.957031 C 20.71875 1.734375 21.015625 1.613281 21.359375 1.613281 L 24.140625 1.613281 C 24.527344 1.613281 24.855469 1.753906 25.132812 2.03125 C 25.410156 2.308594 25.546875 2.644531 25.546875 3.03125 C 25.546875 3.128906 25.539062 3.214844 25.53125 3.28125 L 25.265625 4.972656 L 23.765625 14.726562 L 22.753906 21.902344 C 22.691406 22.34375 22.460938 22.695312 22.121094 22.976562 C 21.777344 23.257812 21.378906 23.398438 20.929688 23.398438 L 17.34375 23.398438 C 16.875 23.398438 16.460938 23.234375 16.101562 22.921875 C 15.746094 22.613281 15.515625 22.230469 15.472656 21.773438 L 14.917969 16.042969 L 14.917969 16.070312 C 14.917969 15.976562 14.882812 15.890625 14.804688 15.816406 C 14.734375 15.738281 14.644531 15.699219 14.542969 15.699219 C 14.449219 15.699219 14.367188 15.726562 14.300781 15.785156 C 14.234375 15.84375 14.199219 15.917969 14.1875 16 L 13.359375 21.929688 C 13.296875 22.367188 13.074219 22.722656 12.730469 23.003906 C 12.386719 23.285156 11.988281 23.425781 11.535156 23.425781 L 7.953125 23.425781 C 7.488281 23.425781 7.078125 23.265625 6.726562 22.964844 C 6.378906 22.664062 6.148438 22.292969 6.082031 21.847656 C 4.757812 13.003906 3.894531 6.144531 3.894531 6.050781 " fill-opacity="1" fill-rule="nonzero"/><g clip-path="url(#0adf0bb195)"><g clip-path="url(#b8f6319c67)"><path fill="#91d9f8" d="M 0.925781 8.984375 C 1.101562 -2.421875 10.199219 -5.339844 28.210938 0.234375 C 26.265625 2.628906 23.628906 5.277344 20.097656 6.6875 C 17.457031 7.746094 11.121094 6.539062 7.59375 7.046875 C 4.632812 7.472656 4.511719 8.945312 0.925781 8.984375 Z M 0.925781 8.984375 " fill-opacity="1" fill-rule="evenodd"/></g></g><g clip-path="url(#c20d7cab53)"><g clip-path="url(#bcb2981353)"><path stroke-linecap="butt" transform="matrix(0.057302, 0, 0, -0.0568996, -3.196339, 40.543053)" fill="none" stroke-linejoin="miter" d="M 71.936789 554.63787 C 75.004419 755.100582 233.771293 806.383338 548.101074 708.417485 C 514.152639 666.334046 468.138195 619.788251 406.512925 595.005019 C 360.430311 576.400431 249.859306 597.61378 188.302206 588.68907 C 136.629689 581.206044 134.516433 555.324386 71.936789 554.63787 Z M 71.936789 554.63787 " stroke="#91d9f8" stroke-width="0.567" stroke-opacity="1" stroke-miterlimit="22.926001"/></g></g><g clip-path="url(#56a4fdca50)"><g clip-path="url(#cd12c4d313)"><path fill="#91d9f8" d="M 0.875 8.992188 C 1.289062 -2.40625 10.441406 -5.136719 28.335938 0.804688 C 26.339844 3.15625 23.648438 5.75 20.089844 7.089844 C 17.429688 8.09375 11.117188 6.757812 7.578125 7.191406 C 4.609375 7.554688 4.460938 9.027344 0.875 8.992188 Z M 0.875 8.992188 " fill-opacity="1" fill-rule="evenodd"/></g></g><g clip-path="url(#d2f44b0080)"><g clip-path="url(#75699283eb)"><path stroke-linecap="butt" transform="matrix(0.057302, 0, 0, -0.0568996, -3.196339, 40.543053)" fill="none" stroke-linejoin="miter" d="M 71.050585 554.500566 C 78.276557 754.825976 237.997805 802.813454 550.282499 698.394349 C 515.447861 657.066078 468.479043 611.481406 406.376586 587.933902 C 359.953124 570.290437 249.791137 593.769289 188.029527 586.14896 C 136.220672 579.76436 133.630229 553.882702 71.050585 554.500566 Z M 71.050585 554.500566 " stroke="#91d9f8" stroke-width="0.567" stroke-opacity="1" stroke-miterlimit="22.926001"/></g></g><path stroke-linecap="butt" transform="matrix(0.057302, 0, 0, -0.0568996, -3.196339, 40.543053)" fill-opacity="1" fill="#ffffff" fill-rule="nonzero" stroke-linejoin="miter" d="M 494.860658 344.289324 C 494.860658 337.355511 492.474723 331.451472 487.702855 326.577208 C 482.930987 321.771595 477.000236 319.368788 469.978773 319.368788 L 421.714734 319.368788 C 415.715814 319.506091 410.466759 321.496988 406.103908 325.41013 C 401.604718 329.254621 398.946105 334.128885 397.855392 340.032924 L 380.540328 441.980571 L 378.767919 448.845732 L 378.086224 445.3445 L 363.975128 341.474608 C 363.225263 335.227311 360.498481 330.009788 355.794782 325.684737 C 351.091083 321.496988 345.56935 319.368788 339.229582 319.368788 L 287.216218 319.368788 C 280.94462 319.368788 275.422886 321.496988 270.719188 325.684737 C 266.083659 330.009788 263.493216 335.227311 262.87969 341.474608 L 247.337033 452.552919 L 245.564625 441.980571 L 215.024668 271.999175 C 213.933955 266.095136 211.411682 261.220871 207.048831 257.376381 C 202.68598 253.463239 197.505094 251.335039 191.506174 251.335039 L 142.969457 251.335039 C 136.220672 251.335039 130.49443 253.806497 125.654392 258.680761 C 120.814354 263.555026 118.42842 269.390413 118.42842 276.186923 C 118.42842 277.971865 118.564759 279.482201 118.701098 280.649278 L 123.336628 310.375427 L 151.967837 473.079752 L 169.62375 581.343347 C 171.05531 589.032328 174.736466 595.279625 180.667216 600.222541 C 186.597967 605.165457 193.551261 607.636916 201.458928 607.636916 L 263.970403 607.636916 C 272.150748 607.568264 279.44489 604.753548 285.648318 599.261419 C 291.919917 593.769289 295.601072 587.110083 296.623615 579.077844 L 306.371861 496.215346 L 306.371861 496.695907 C 306.371861 495.048269 306.985387 493.606585 308.280608 492.233552 C 309.575829 490.86052 311.143729 490.174004 312.847968 490.174004 C 314.484037 490.174004 315.983767 490.654565 317.07448 491.684339 C 318.301531 492.714114 318.983227 494.018494 319.119566 495.52883 L 333.57151 581.343347 C 334.798562 589.032328 338.479717 595.279625 344.546807 600.222541 C 350.477557 605.165457 357.430851 607.636916 365.338519 607.636916 L 427.849993 607.636916 C 436.030339 607.568264 443.119971 604.822199 449.255231 599.536025 C 455.39049 594.249851 459.139815 587.727947 460.571375 579.901663 C 483.408174 424.474409 494.860658 345.936963 494.860658 344.289324 Z M 494.860658 344.289324 " stroke="#00b0f0" stroke-width="0.216" stroke-opacity="1" stroke-miterlimit="22.926001"/><g fill="#00b0f0" fill-opacity="1"><g transform="translate(10.11181, 25.824015)"><g><path d="M 0.984375 -0.71875 C 0.984375 -0.65625 0.96875 -0.59375 0.9375 -0.53125 C 0.90625 -0.476562 0.859375 -0.4375 0.796875 -0.40625 C 0.734375 -0.382812 0.664062 -0.375 0.59375 -0.375 L 0.328125 -0.375 L 0.328125 0 L 0.109375 0 L 0.109375 -1.046875 L 0.578125 -1.046875 C 0.703125 -1.046875 0.800781 -1.015625 0.875 -0.953125 C 0.945312 -0.898438 0.984375 -0.820312 0.984375 -0.71875 Z M 0.75 -0.71875 C 0.75 -0.820312 0.6875 -0.875 0.5625 -0.875 L 0.328125 -0.875 L 0.328125 -0.546875 L 0.5625 -0.546875 C 0.625 -0.546875 0.671875 -0.554688 0.703125 -0.578125 C 0.734375 -0.609375 0.75 -0.65625 0.75 -0.71875 Z M 0.75 -0.71875 "/></g></g></g><g fill="#00b0f0" fill-opacity="1"><g transform="translate(11.138963, 25.824015)"><g><path d="M 0.828125 0 L 0.59375 -0.40625 L 0.328125 -0.40625 L 0.328125 0 L 0.109375 0 L 0.109375 -1.046875 L 0.640625 -1.046875 C 0.765625 -1.046875 0.859375 -1.019531 0.921875 -0.96875 C 0.992188 -0.914062 1.03125 -0.835938 1.03125 -0.734375 C 1.03125 -0.660156 1.007812 -0.597656 0.96875 -0.546875 C 0.925781 -0.492188 0.867188 -0.457031 0.796875 -0.4375 L 1.078125 0 Z M 0.8125 -0.734375 C 0.8125 -0.828125 0.742188 -0.875 0.609375 -0.875 L 0.328125 -0.875 L 0.328125 -0.578125 L 0.625 -0.578125 C 0.6875 -0.578125 0.734375 -0.585938 0.765625 -0.609375 C 0.796875 -0.640625 0.8125 -0.679688 0.8125 -0.734375 Z M 0.8125 -0.734375 "/></g></g></g><g fill="#00b0f0" fill-opacity="1"><g transform="translate(12.223181, 25.824015)"><g><path d="M 1.140625 -0.53125 C 1.140625 -0.414062 1.113281 -0.316406 1.0625 -0.234375 C 1.019531 -0.160156 0.957031 -0.0976562 0.875 -0.046875 C 0.800781 -0.00390625 0.707031 0.015625 0.59375 0.015625 C 0.425781 0.015625 0.296875 -0.03125 0.203125 -0.125 C 0.109375 -0.226562 0.0625 -0.363281 0.0625 -0.53125 C 0.0625 -0.695312 0.109375 -0.828125 0.203125 -0.921875 C 0.296875 -1.015625 0.425781 -1.0625 0.59375 -1.0625 C 0.769531 -1.0625 0.90625 -1.015625 1 -0.921875 C 1.09375 -0.828125 1.140625 -0.695312 1.140625 -0.53125 Z M 0.90625 -0.53125 C 0.90625 -0.644531 0.878906 -0.734375 0.828125 -0.796875 C 0.773438 -0.859375 0.695312 -0.890625 0.59375 -0.890625 C 0.5 -0.890625 0.421875 -0.859375 0.359375 -0.796875 C 0.304688 -0.734375 0.28125 -0.644531 0.28125 -0.53125 C 0.28125 -0.414062 0.304688 -0.320312 0.359375 -0.25 C 0.421875 -0.1875 0.5 -0.15625 0.59375 -0.15625 C 0.695312 -0.15625 0.773438 -0.1875 0.828125 -0.25 C 0.878906 -0.320312 0.90625 -0.414062 0.90625 -0.53125 Z M 0.90625 -0.53125 "/></g></g></g><g fill="#00b0f0" fill-opacity="1"><g transform="translate(13.421526, 25.824015)"><g><path d="M 1.046875 -0.53125 C 1.046875 -0.425781 1.023438 -0.332031 0.984375 -0.25 C 0.941406 -0.164062 0.878906 -0.101562 0.796875 -0.0625 C 0.722656 -0.0195312 0.632812 0 0.53125 0 L 0.109375 0 L 0.109375 -1.046875 L 0.484375 -1.046875 C 0.660156 -1.046875 0.796875 -1 0.890625 -0.90625 C 0.992188 -0.820312 1.046875 -0.695312 1.046875 -0.53125 Z M 0.828125 -0.53125 C 0.828125 -0.644531 0.796875 -0.734375 0.734375 -0.796875 C 0.679688 -0.859375 0.597656 -0.890625 0.484375 -0.890625 L 0.328125 -0.890625 L 0.328125 -0.171875 L 0.515625 -0.171875 C 0.609375 -0.171875 0.679688 -0.203125 0.734375 -0.265625 C 0.796875 -0.328125 0.828125 -0.414062 0.828125 -0.53125 Z M 0.828125 -0.53125 "/></g></g></g><g fill="#00b0f0" fill-opacity="1"><g transform="translate(14.539982, 25.824015)"><g><path d="M 0.546875 0.015625 C 0.398438 0.015625 0.285156 -0.0195312 0.203125 -0.09375 C 0.128906 -0.164062 0.09375 -0.265625 0.09375 -0.390625 L 0.09375 -1.046875 L 0.3125 -1.046875 L 0.3125 -0.40625 C 0.3125 -0.320312 0.332031 -0.257812 0.375 -0.21875 C 0.414062 -0.175781 0.472656 -0.15625 0.546875 -0.15625 C 0.628906 -0.15625 0.691406 -0.175781 0.734375 -0.21875 C 0.773438 -0.269531 0.796875 -0.335938 0.796875 -0.421875 L 0.796875 -1.046875 L 1.015625 -1.046875 L 1.015625 -0.40625 C 1.015625 -0.269531 0.972656 -0.164062 0.890625 -0.09375 C 0.804688 -0.0195312 0.691406 0.015625 0.546875 0.015625 Z M 0.546875 0.015625 "/></g></g></g><g fill="#00b0f0" fill-opacity="1"><g transform="translate(15.647025, 25.824015)"><g><path d="M 0.578125 -0.890625 L 0.578125 0 L 0.359375 0 L 0.359375 -0.890625 L 0.015625 -0.890625 L 0.015625 -1.046875 L 0.921875 -1.046875 L 0.921875 -0.890625 Z M 0.578125 -0.890625 "/></g></g></g><g fill="#00b0f0" fill-opacity="1"><g transform="translate(16.537225, 25.824015)"><g><path d="M 1.140625 -0.53125 C 1.140625 -0.414062 1.113281 -0.316406 1.0625 -0.234375 C 1.019531 -0.160156 0.957031 -0.0976562 0.875 -0.046875 C 0.800781 -0.00390625 0.707031 0.015625 0.59375 0.015625 C 0.425781 0.015625 0.296875 -0.03125 0.203125 -0.125 C 0.109375 -0.226562 0.0625 -0.363281 0.0625 -0.53125 C 0.0625 -0.695312 0.109375 -0.828125 0.203125 -0.921875 C 0.296875 -1.015625 0.425781 -1.0625 0.59375 -1.0625 C 0.769531 -1.0625 0.90625 -1.015625 1 -0.921875 C 1.09375 -0.828125 1.140625 -0.695312 1.140625 -0.53125 Z M 0.90625 -0.53125 C 0.90625 -0.644531 0.878906 -0.734375 0.828125 -0.796875 C 0.773438 -0.859375 0.695312 -0.890625 0.59375 -0.890625 C 0.5 -0.890625 0.421875 -0.859375 0.359375 -0.796875 C 0.304688 -0.734375 0.28125 -0.644531 0.28125 -0.53125 C 0.28125 -0.414062 0.304688 -0.320312 0.359375 -0.25 C 0.421875 -0.1875 0.5 -0.15625 0.59375 -0.15625 C 0.695312 -0.15625 0.773438 -0.1875 0.828125 -0.25 C 0.878906 -0.320312 0.90625 -0.414062 0.90625 -0.53125 Z M 0.90625 -0.53125 "/></g></g></g><g fill="#00b0f0" fill-opacity="1"><g transform="translate(17.73557, 25.824015)"><g><path d="M 0.96875 -0.296875 C 0.96875 -0.203125 0.925781 -0.125 0.84375 -0.0625 C 0.769531 -0.0078125 0.660156 0.015625 0.515625 0.015625 C 0.378906 0.015625 0.269531 -0.00390625 0.1875 -0.046875 C 0.113281 -0.0976562 0.0664062 -0.175781 0.046875 -0.28125 L 0.265625 -0.3125 C 0.273438 -0.25 0.300781 -0.207031 0.34375 -0.1875 C 0.382812 -0.164062 0.441406 -0.15625 0.515625 -0.15625 C 0.671875 -0.15625 0.75 -0.203125 0.75 -0.296875 C 0.75 -0.316406 0.738281 -0.335938 0.71875 -0.359375 C 0.707031 -0.378906 0.6875 -0.394531 0.65625 -0.40625 C 0.625 -0.425781 0.5625 -0.441406 0.46875 -0.453125 C 0.382812 -0.472656 0.328125 -0.488281 0.296875 -0.5 C 0.265625 -0.507812 0.234375 -0.519531 0.203125 -0.53125 C 0.179688 -0.550781 0.160156 -0.570312 0.140625 -0.59375 C 0.128906 -0.613281 0.117188 -0.640625 0.109375 -0.671875 C 0.0976562 -0.703125 0.09375 -0.738281 0.09375 -0.78125 C 0.09375 -0.875 0.128906 -0.941406 0.203125 -0.984375 C 0.273438 -1.035156 0.378906 -1.0625 0.515625 -1.0625 C 0.648438 -1.0625 0.75 -1.039062 0.8125 -1 C 0.882812 -0.96875 0.925781 -0.90625 0.9375 -0.8125 L 0.734375 -0.78125 C 0.710938 -0.820312 0.6875 -0.851562 0.65625 -0.875 C 0.625 -0.894531 0.578125 -0.90625 0.515625 -0.90625 C 0.378906 -0.90625 0.3125 -0.863281 0.3125 -0.78125 C 0.3125 -0.757812 0.316406 -0.738281 0.328125 -0.71875 C 0.347656 -0.695312 0.367188 -0.679688 0.390625 -0.671875 C 0.421875 -0.660156 0.476562 -0.644531 0.5625 -0.625 C 0.664062 -0.601562 0.738281 -0.582031 0.78125 -0.5625 C 0.832031 -0.550781 0.867188 -0.53125 0.890625 -0.5 C 0.921875 -0.476562 0.941406 -0.453125 0.953125 -0.421875 C 0.960938 -0.390625 0.96875 -0.347656 0.96875 -0.296875 Z M 0.96875 -0.296875 "/></g></g></g><g fill="#00b0f0" fill-opacity="1"><g transform="translate(18.762724, 25.824015)"><g/></g></g><g fill="#00b0f0" fill-opacity="1"><g transform="translate(19.196411, 25.824015)"><g><path d="M 1.046875 -0.53125 C 1.046875 -0.425781 1.023438 -0.332031 0.984375 -0.25 C 0.941406 -0.164062 0.878906 -0.101562 0.796875 -0.0625 C 0.722656 -0.0195312 0.632812 0 0.53125 0 L 0.109375 0 L 0.109375 -1.046875 L 0.484375 -1.046875 C 0.660156 -1.046875 0.796875 -1 0.890625 -0.90625 C 0.992188 -0.820312 1.046875 -0.695312 1.046875 -0.53125 Z M 0.828125 -0.53125 C 0.828125 -0.644531 0.796875 -0.734375 0.734375 -0.796875 C 0.679688 -0.859375 0.597656 -0.890625 0.484375 -0.890625 L 0.328125 -0.890625 L 0.328125 -0.171875 L 0.515625 -0.171875 C 0.609375 -0.171875 0.679688 -0.203125 0.734375 -0.265625 C 0.796875 -0.328125 0.828125 -0.414062 0.828125 -0.53125 Z M 0.828125 -0.53125 "/></g></g></g><g fill="#00b0f0" fill-opacity="1"><g transform="translate(20.303454, 25.824015)"><g><path d="M 0.109375 0 L 0.109375 -1.046875 L 0.9375 -1.046875 L 0.9375 -0.890625 L 0.328125 -0.890625 L 0.328125 -0.625 L 0.890625 -0.625 L 0.890625 -0.453125 L 0.328125 -0.453125 L 0.328125 -0.171875 L 0.96875 -0.171875 L 0.96875 0 Z M 0.109375 0 "/></g></g></g><g fill="#00b0f0" fill-opacity="1"><g transform="translate(21.34202, 25.824015)"><g/></g></g><g fill="#00b0f0" fill-opacity="1"><g transform="translate(21.764294, 25.824015)"><g><path d="M 0.109375 0 L 0.109375 -1.046875 L 0.328125 -1.046875 L 0.328125 -0.171875 L 0.890625 -0.171875 L 0.890625 0 Z M 0.109375 0 "/></g></g></g><g fill="#00b0f0" fill-opacity="1"><g transform="translate(22.711558, 25.824015)"><g><path d="M 0.109375 0 L 0.109375 -1.046875 L 0.328125 -1.046875 L 0.328125 0 Z M 0.109375 0 "/></g></g></g><g fill="#00b0f0" fill-opacity="1"><g transform="translate(23.133832, 25.824015)"><g><path d="M 0.984375 0 L 0.984375 -0.640625 C 0.984375 -0.648438 0.984375 -0.660156 0.984375 -0.671875 C 0.984375 -0.691406 0.988281 -0.757812 1 -0.875 C 0.957031 -0.738281 0.929688 -0.644531 0.921875 -0.59375 L 0.71875 0 L 0.5625 0 L 0.375 -0.59375 L 0.296875 -0.875 C 0.296875 -0.75 0.296875 -0.671875 0.296875 -0.640625 L 0.296875 0 L 0.109375 0 L 0.109375 -1.046875 L 0.40625 -1.046875 L 0.59375 -0.46875 L 0.609375 -0.40625 L 0.640625 -0.265625 L 0.6875 -0.4375 L 0.890625 -1.046875 L 1.1875 -1.046875 L 1.1875 0 Z M 0.984375 0 "/></g></g></g><g fill="#00b0f0" fill-opacity="1"><g transform="translate(24.42348, 25.824015)"><g><path d="M 0.984375 -0.71875 C 0.984375 -0.65625 0.96875 -0.59375 0.9375 -0.53125 C 0.90625 -0.476562 0.859375 -0.4375 0.796875 -0.40625 C 0.734375 -0.382812 0.664062 -0.375 0.59375 -0.375 L 0.328125 -0.375 L 0.328125 0 L 0.109375 0 L 0.109375 -1.046875 L 0.578125 -1.046875 C 0.703125 -1.046875 0.800781 -1.015625 0.875 -0.953125 C 0.945312 -0.898438 0.984375 -0.820312 0.984375 -0.71875 Z M 0.75 -0.71875 C 0.75 -0.820312 0.6875 -0.875 0.5625 -0.875 L 0.328125 -0.875 L 0.328125 -0.546875 L 0.5625 -0.546875 C 0.625 -0.546875 0.671875 -0.554688 0.703125 -0.578125 C 0.734375 -0.609375 0.75 -0.65625 0.75 -0.71875 Z M 0.75 -0.71875 "/></g></g></g><g fill="#00b0f0" fill-opacity="1"><g transform="translate(25.450633, 25.824015)"><g><path d="M 0.109375 0 L 0.109375 -1.046875 L 0.9375 -1.046875 L 0.9375 -0.890625 L 0.328125 -0.890625 L 0.328125 -0.625 L 0.890625 -0.625 L 0.890625 -0.453125 L 0.328125 -0.453125 L 0.328125 -0.171875 L 0.96875 -0.171875 L 0.96875 0 Z M 0.109375 0 "/></g></g></g><g fill="#00b0f0" fill-opacity="1"><g transform="translate(26.4892, 25.824015)"><g><path d="M 0.90625 0 L 0.046875 0 L 0.046875 -0.15625 L 0.625 -0.875 L 0.109375 -0.875 L 0.109375 -1.046875 L 0.875 -1.046875 L 0.875 -0.90625 L 0.296875 -0.171875 L 0.90625 -0.171875 Z M 0.90625 0 "/></g></g></g><g fill="#00b0f0" fill-opacity="1"><g transform="translate(27.42505, 25.824015)"><g><path d="M 0.859375 0 L 0.765625 -0.265625 L 0.359375 -0.265625 L 0.265625 0 L 0.03125 0 L 0.421875 -1.046875 L 0.6875 -1.046875 L 1.078125 0 Z M 0.5625 -0.890625 L 0.546875 -0.875 C 0.546875 -0.851562 0.539062 -0.832031 0.53125 -0.8125 C 0.53125 -0.789062 0.488281 -0.664062 0.40625 -0.4375 L 0.71875 -0.4375 L 0.609375 -0.734375 L 0.578125 -0.84375 Z M 0.5625 -0.890625 "/></g></g></g><path fill="#ffffff" d="M 5.230469 7.046875 C 5.230469 7.046875 5.230469 7.046875 5.226562 7.046875 C 4.507812 5.832031 4.589844 5.046875 5.726562 4.117188 C 5.738281 4.109375 5.734375 4.109375 5.722656 4.113281 C 4.503906 4.988281 3.773438 4.699219 2.84375 3.632812 C 2.839844 3.625 2.835938 3.625 2.839844 3.632812 C 3.699219 4.878906 3.464844 5.902344 2.214844 6.6875 C 2.207031 6.695312 2.21875 6.703125 2.226562 6.699219 C 3.613281 5.613281 4.425781 5.808594 5.230469 7.046875 " fill-opacity="1" fill-rule="evenodd"/><path fill="#ffffff" d="M 19.496094 24.261719 C 19.132812 23.648438 19.171875 23.253906 19.746094 22.785156 C 19.75 22.78125 19.75 22.78125 19.742188 22.78125 C 19.128906 23.222656 18.761719 23.078125 18.292969 22.539062 C 18.289062 22.535156 18.289062 22.535156 18.289062 22.539062 C 18.722656 23.167969 18.605469 23.683594 17.976562 24.082031 C 17.972656 24.082031 17.976562 24.089844 17.980469 24.085938 C 18.679688 23.539062 19.089844 23.636719 19.496094 24.261719 " fill-opacity="1" fill-rule="evenodd"/></svg>