<svg xmlns="http://www.w3.org/2000/svg" xmlns:xlink="http://www.w3.org/1999/xlink" width="60" zoomAndPan="magnify" viewBox="0 0 45 44.999999" height="60" preserveAspectRatio="xMidYMid meet" version="1.0"><defs><g/><clipPath id="aab9cdd786"><path d="M 5.101562 2.429688 L 38.527344 2.429688 L 38.527344 14 L 5.101562 14 Z M 5.101562 2.429688 " clip-rule="nonzero"/></clipPath><clipPath id="4265b17788"><path d="M 5.167969 9.378906 C 5.167969 8.769531 5.378906 8.246094 5.800781 7.824219 C 6.21875 7.398438 6.742188 7.183594 7.363281 7.183594 L 11.617188 7.183594 C 12.148438 7.183594 12.605469 7.375 12.996094 7.714844 C 13.386719 8.058594 13.636719 8.488281 13.722656 9.007812 L 15.589844 20.082031 L 15.746094 20.6875 L 15.808594 20.378906 L 17.054688 14.75 C 17.171875 14.210938 17.355469 13.738281 17.769531 13.359375 C 18.183594 12.988281 18.675781 12.804688 19.234375 12.804688 L 23.816406 12.804688 C 24.375 12.804688 24.863281 12.988281 25.273438 13.359375 C 25.6875 13.734375 25.847656 14.210938 25.964844 14.75 L 27.339844 21.015625 L 27.492188 20.082031 L 29.976562 4.328125 C 30.058594 3.804688 30.292969 3.378906 30.679688 3.035156 C 31.0625 2.691406 31.519531 2.503906 32.050781 2.503906 L 36.332031 2.503906 C 36.925781 2.503906 37.433594 2.722656 37.859375 3.152344 C 38.28125 3.582031 38.496094 4.097656 38.496094 4.699219 C 38.496094 4.851562 38.484375 4.984375 38.46875 5.085938 L 38.058594 7.707031 L 35.75 22.824219 L 34.191406 33.949219 C 34.097656 34.628906 33.742188 35.179688 33.21875 35.613281 C 32.695312 36.050781 32.082031 36.265625 31.386719 36.265625 L 25.871094 36.265625 C 25.148438 36.265625 24.507812 36.011719 23.957031 35.527344 C 23.40625 35.046875 23.054688 34.457031 22.988281 33.746094 L 22.132812 24.867188 L 22.132812 24.910156 C 22.132812 24.765625 22.078125 24.632812 21.960938 24.515625 C 21.851562 24.394531 21.710938 24.335938 21.558594 24.335938 C 21.414062 24.335938 21.289062 24.378906 21.183594 24.46875 C 21.082031 24.558594 21.027344 24.671875 21.011719 24.800781 L 19.734375 33.992188 C 19.640625 34.667969 19.296875 35.21875 18.765625 35.65625 C 18.238281 36.089844 17.628906 36.308594 16.929688 36.308594 L 11.417969 36.308594 C 10.699219 36.308594 10.070312 36.058594 9.527344 35.59375 C 8.992188 35.128906 8.636719 34.550781 8.535156 33.863281 C 6.5 20.160156 5.167969 9.523438 5.167969 9.378906 " clip-rule="nonzero"/></clipPath><clipPath id="6f06bbc597"><path d="M 5.101562 2.429688 L 38.527344 2.429688 L 38.527344 16 L 5.101562 16 Z M 5.101562 2.429688 " clip-rule="nonzero"/></clipPath><clipPath id="32e5396bec"><path d="M 5.167969 9.378906 C 5.167969 8.769531 5.378906 8.246094 5.800781 7.824219 C 6.21875 7.398438 6.742188 7.183594 7.363281 7.183594 L 11.617188 7.183594 C 12.148438 7.183594 12.605469 7.375 12.996094 7.714844 C 13.386719 8.058594 13.636719 8.488281 13.722656 9.007812 L 15.589844 20.082031 L 15.746094 20.6875 L 15.808594 20.378906 L 17.054688 14.75 C 17.171875 14.210938 17.355469 13.738281 17.769531 13.359375 C 18.183594 12.988281 18.675781 12.804688 19.234375 12.804688 L 23.816406 12.804688 C 24.375 12.804688 24.863281 12.988281 25.273438 13.359375 C 25.6875 13.734375 25.847656 14.210938 25.964844 14.75 L 27.339844 21.015625 L 27.492188 20.082031 L 29.976562 4.328125 C 30.058594 3.804688 30.292969 3.378906 30.679688 3.035156 C 31.0625 2.691406 31.519531 2.503906 32.050781 2.503906 L 36.332031 2.503906 C 36.925781 2.503906 37.433594 2.722656 37.859375 3.152344 C 38.28125 3.582031 38.496094 4.097656 38.496094 4.699219 C 38.496094 4.851562 38.484375 4.984375 38.46875 5.085938 L 38.058594 7.707031 L 35.75 22.824219 L 34.191406 33.949219 C 34.097656 34.628906 33.742188 35.179688 33.21875 35.613281 C 32.695312 36.050781 32.082031 36.265625 31.386719 36.265625 L 25.871094 36.265625 C 25.148438 36.265625 24.507812 36.011719 23.957031 35.527344 C 23.40625 35.046875 23.054688 34.457031 22.988281 33.746094 L 22.132812 24.867188 L 22.132812 24.910156 C 22.132812 24.765625 22.078125 24.632812 21.960938 24.515625 C 21.851562 24.394531 21.710938 24.335938 21.558594 24.335938 C 21.414062 24.335938 21.289062 24.378906 21.183594 24.46875 C 21.082031 24.558594 21.027344 24.671875 21.011719 24.800781 L 19.734375 33.992188 C 19.640625 34.667969 19.296875 35.21875 18.765625 35.65625 C 18.238281 36.089844 17.628906 36.308594 16.929688 36.308594 L 11.417969 36.308594 C 10.699219 36.308594 10.070312 36.058594 9.527344 35.59375 C 8.992188 35.128906 8.636719 34.550781 8.535156 33.863281 C 6.5 20.160156 5.167969 9.523438 5.167969 9.378906 " clip-rule="nonzero"/></clipPath><clipPath id="1ef9d19ba6"><path d="M 5.101562 2.429688 L 38.527344 2.429688 L 38.527344 14 L 5.101562 14 Z M 5.101562 2.429688 " clip-rule="nonzero"/></clipPath><clipPath id="08d6d9df93"><path d="M 5.167969 9.378906 C 5.167969 8.769531 5.378906 8.246094 5.800781 7.824219 C 6.21875 7.398438 6.742188 7.183594 7.363281 7.183594 L 11.617188 7.183594 C 12.148438 7.183594 12.605469 7.375 12.996094 7.714844 C 13.386719 8.058594 13.636719 8.488281 13.722656 9.007812 L 15.589844 20.082031 L 15.746094 20.6875 L 15.808594 20.378906 L 17.054688 14.75 C 17.171875 14.210938 17.355469 13.738281 17.769531 13.359375 C 18.183594 12.988281 18.675781 12.804688 19.234375 12.804688 L 23.816406 12.804688 C 24.375 12.804688 24.863281 12.988281 25.273438 13.359375 C 25.6875 13.734375 25.847656 14.210938 25.964844 14.75 L 27.339844 21.015625 L 27.492188 20.082031 L 29.976562 4.328125 C 30.058594 3.804688 30.292969 3.378906 30.679688 3.035156 C 31.0625 2.691406 31.519531 2.503906 32.050781 2.503906 L 36.332031 2.503906 C 36.925781 2.503906 37.433594 2.722656 37.859375 3.152344 C 38.28125 3.582031 38.496094 4.097656 38.496094 4.699219 C 38.496094 4.851562 38.484375 4.984375 38.46875 5.085938 L 38.058594 7.707031 L 35.75 22.824219 L 34.191406 33.949219 C 34.097656 34.628906 33.742188 35.179688 33.21875 35.613281 C 32.695312 36.050781 32.082031 36.265625 31.386719 36.265625 L 25.871094 36.265625 C 25.148438 36.265625 24.507812 36.011719 23.957031 35.527344 C 23.40625 35.046875 23.054688 34.457031 22.988281 33.746094 L 22.132812 24.867188 L 22.132812 24.910156 C 22.132812 24.765625 22.078125 24.632812 21.960938 24.515625 C 21.851562 24.394531 21.710938 24.335938 21.558594 24.335938 C 21.414062 24.335938 21.289062 24.378906 21.183594 24.46875 C 21.082031 24.558594 21.027344 24.671875 21.011719 24.800781 L 19.734375 33.992188 C 19.640625 34.667969 19.296875 35.21875 18.765625 35.65625 C 18.238281 36.089844 17.628906 36.308594 16.929688 36.308594 L 11.417969 36.308594 C 10.699219 36.308594 10.070312 36.058594 9.527344 35.59375 C 8.992188 35.128906 8.636719 34.550781 8.535156 33.863281 C 6.5 20.160156 5.167969 9.523438 5.167969 9.378906 " clip-rule="nonzero"/></clipPath><clipPath id="01ac200d9a"><path d="M 5.101562 2.429688 L 38.527344 2.429688 L 38.527344 16 L 5.101562 16 Z M 5.101562 2.429688 " clip-rule="nonzero"/></clipPath><clipPath id="03bd83aeb8"><path d="M 5.167969 9.378906 C 5.167969 8.769531 5.378906 8.246094 5.800781 7.824219 C 6.21875 7.398438 6.742188 7.183594 7.363281 7.183594 L 11.617188 7.183594 C 12.148438 7.183594 12.605469 7.375 12.996094 7.714844 C 13.386719 8.058594 13.636719 8.488281 13.722656 9.007812 L 15.589844 20.082031 L 15.746094 20.6875 L 15.808594 20.378906 L 17.054688 14.75 C 17.171875 14.210938 17.355469 13.738281 17.769531 13.359375 C 18.183594 12.988281 18.675781 12.804688 19.234375 12.804688 L 23.816406 12.804688 C 24.375 12.804688 24.863281 12.988281 25.273438 13.359375 C 25.6875 13.734375 25.847656 14.210938 25.964844 14.75 L 27.339844 21.015625 L 27.492188 20.082031 L 29.976562 4.328125 C 30.058594 3.804688 30.292969 3.378906 30.679688 3.035156 C 31.0625 2.691406 31.519531 2.503906 32.050781 2.503906 L 36.332031 2.503906 C 36.925781 2.503906 37.433594 2.722656 37.859375 3.152344 C 38.28125 3.582031 38.496094 4.097656 38.496094 4.699219 C 38.496094 4.851562 38.484375 4.984375 38.46875 5.085938 L 38.058594 7.707031 L 35.75 22.824219 L 34.191406 33.949219 C 34.097656 34.628906 33.742188 35.179688 33.21875 35.613281 C 32.695312 36.050781 32.082031 36.265625 31.386719 36.265625 L 25.871094 36.265625 C 25.148438 36.265625 24.507812 36.011719 23.957031 35.527344 C 23.40625 35.046875 23.054688 34.457031 22.988281 33.746094 L 22.132812 24.867188 L 22.132812 24.910156 C 22.132812 24.765625 22.078125 24.632812 21.960938 24.515625 C 21.851562 24.394531 21.710938 24.335938 21.558594 24.335938 C 21.414062 24.335938 21.289062 24.378906 21.183594 24.46875 C 21.082031 24.558594 21.027344 24.671875 21.011719 24.800781 L 19.734375 33.992188 C 19.640625 34.667969 19.296875 35.21875 18.765625 35.65625 C 18.238281 36.089844 17.628906 36.308594 16.929688 36.308594 L 11.417969 36.308594 C 10.699219 36.308594 10.070312 36.058594 9.527344 35.59375 C 8.992188 35.128906 8.636719 34.550781 8.535156 33.863281 C 6.5 20.160156 5.167969 9.523438 5.167969 9.378906 " clip-rule="nonzero"/></clipPath></defs><path stroke-linecap="butt" transform="matrix(0.0881944, 0, 0, -0.0881839, -5.745247, 62.836417)" fill="none" stroke-linejoin="miter" d="M 289.478659 310.48064 C 287.485548 307.689952 285.093815 305.165043 282.30346 302.905914 C 275.039679 296.925866 266.53574 293.913694 257.101683 293.913694 L 228.002266 293.913694 L 223.750297 270.436471 C 222.377265 262.684557 218.878248 255.951467 212.943208 250.724462 C 206.919584 245.320271 199.611512 242.440989 191.506195 242.440989 L 142.962877 242.440989 C 133.750276 242.440989 125.777833 245.896128 119.311296 252.407735 C 112.889051 258.963639 109.522908 267.025629 109.522908 276.239332 C 109.522908 278.144087 109.611491 280.09314 109.92153 281.997896 L 114.616413 311.898133 L 138.090828 445.496823 C 134.414646 471.720439 130.827047 497.899758 127.32803 524.123373 C 124.714841 543.791085 122.101651 563.4145 119.621336 583.082212 C 118.912674 588.486403 118.248304 593.93489 117.583934 599.339081 C 117.318186 601.332431 116.830981 604.167416 116.830981 606.205062 C 116.830981 614.842908 119.887084 622.550525 125.99929 628.707759 C 132.155787 634.953586 139.906773 638.010055 148.632169 638.010055 L 196.865448 638.010055 C 204.527851 638.010055 211.304428 635.263663 217.062303 630.258142 C 221.402855 626.44863 224.50325 621.841779 226.319195 616.526181 L 264.099716 616.526181 C 274.463891 616.393291 283.765075 612.805262 291.560352 605.939282 C 299.311338 599.117598 304.094804 590.524049 305.467836 580.247226 L 306.176497 574.267179 L 323.36154 574.267179 L 324.778864 582.860728 C 326.461935 592.650288 331.245401 600.800871 338.863513 607.090995 C 346.525916 613.381119 355.428477 616.526181 365.349739 616.526181 L 390.640099 616.526181 L 398.21392 664.588044 C 399.365495 671.985584 402.775929 678.320005 408.40093 683.325526 C 414.114514 688.375344 420.891091 691.077439 428.553494 691.077439 L 477.096812 691.077439 C 485.733625 691.077439 493.218863 687.843784 499.286778 681.68655 C 505.398984 675.529316 508.54367 667.954589 508.54367 659.272446 C 508.54367 657.456284 508.410796 655.595824 508.145048 653.823958 L 503.494456 624.100908 L 482.898979 489.040428 C 486.973783 461.26643 491.004296 433.492432 495.0791 405.674137 C 497.249376 390.879056 499.375361 376.039679 501.501346 361.156006 C 502.077133 357.346494 502.608629 353.536982 503.140126 349.683174 C 503.361582 348.088494 503.760204 345.917959 503.760204 344.278983 C 503.760204 335.06528 500.482645 326.914697 494.016108 320.358793 C 487.460988 313.758592 479.222797 310.48064 469.965905 310.48064 L 453.002319 310.48064 C 451.097791 307.911435 448.79464 305.563712 446.225742 303.393177 C 438.961961 297.368833 430.413731 294.400957 421.023965 294.400957 L 358.48458 294.400957 C 348.519027 294.400957 339.660757 297.944689 332.21981 304.500593 C 330.093825 306.361052 328.189297 308.354401 326.506226 310.48064 Z M 289.478659 310.48064 " stroke="#00b0f0" stroke-width="0.567" stroke-opacity="1" stroke-miterlimit="22.926001"/><path fill="#00b0f0" d="M 5.167969 9.378906 C 5.167969 8.769531 5.378906 8.246094 5.800781 7.824219 C 6.21875 7.398438 6.742188 7.183594 7.363281 7.183594 L 11.617188 7.183594 C 12.148438 7.183594 12.605469 7.375 12.996094 7.714844 C 13.386719 8.058594 13.636719 8.488281 13.722656 9.007812 L 15.589844 20.082031 L 15.746094 20.6875 L 15.808594 20.378906 L 17.054688 14.75 C 17.171875 14.210938 17.355469 13.738281 17.769531 13.359375 C 18.183594 12.988281 18.675781 12.804688 19.234375 12.804688 L 23.816406 12.804688 C 24.375 12.804688 24.863281 12.988281 25.273438 13.359375 C 25.6875 13.734375 25.847656 14.210938 25.964844 14.75 L 27.339844 21.015625 L 27.492188 20.082031 L 29.976562 4.328125 C 30.058594 3.804688 30.292969 3.378906 30.679688 3.035156 C 31.0625 2.691406 31.519531 2.503906 32.050781 2.503906 L 36.332031 2.503906 C 36.925781 2.503906 37.433594 2.722656 37.859375 3.152344 C 38.28125 3.582031 38.496094 4.097656 38.496094 4.699219 C 38.496094 4.851562 38.484375 4.984375 38.46875 5.085938 L 38.058594 7.707031 L 35.75 22.824219 L 34.191406 33.949219 C 34.097656 34.628906 33.742188 35.179688 33.21875 35.613281 C 32.695312 36.050781 32.082031 36.265625 31.386719 36.265625 L 25.871094 36.265625 C 25.148438 36.265625 24.507812 36.011719 23.957031 35.527344 C 23.40625 35.046875 23.054688 34.457031 22.988281 33.746094 L 22.132812 24.867188 L 22.132812 24.910156 C 22.132812 24.765625 22.078125 24.632812 21.960938 24.515625 C 21.851562 24.394531 21.710938 24.335938 21.558594 24.335938 C 21.414062 24.335938 21.289062 24.378906 21.183594 24.46875 C 21.082031 24.558594 21.027344 24.671875 21.011719 24.800781 L 19.734375 33.992188 C 19.640625 34.667969 19.296875 35.21875 18.765625 35.65625 C 18.238281 36.089844 17.628906 36.308594 16.929688 36.308594 L 11.417969 36.308594 C 10.699219 36.308594 10.070312 36.058594 9.527344 35.59375 C 8.992188 35.128906 8.636719 34.550781 8.535156 33.863281 C 6.5 20.160156 5.167969 9.523438 5.167969 9.378906 " fill-opacity="1" fill-rule="nonzero"/><g clip-path="url(#aab9cdd786)"><g clip-path="url(#4265b17788)"><path fill="#91d9f8" d="M 0.601562 13.925781 C 0.871094 -3.75 14.871094 -8.273438 42.597656 0.367188 C 39.601562 4.074219 35.542969 8.179688 30.109375 10.371094 C 26.042969 12.007812 16.289062 10.136719 10.859375 10.921875 C 6.304688 11.582031 6.121094 13.867188 0.601562 13.925781 Z M 0.601562 13.925781 " fill-opacity="1" fill-rule="evenodd"/></g></g><g clip-path="url(#6f06bbc597)"><g clip-path="url(#32e5396bec)"><path stroke-linecap="butt" transform="matrix(0.0881944, 0, 0, -0.0881839, -5.745247, 62.836417)" fill="none" stroke-linejoin="miter" d="M 71.963844 554.643764 C 75.019947 755.086096 233.760142 806.381614 548.140136 708.397429 C 514.168671 666.35991 468.14996 619.804133 406.540694 594.953713 C 360.433399 576.393418 249.837901 597.611512 188.272926 588.707886 C 136.629214 581.221752 134.54752 555.308213 71.963844 554.643764 Z M 71.963844 554.643764 " stroke="#91d9f8" stroke-width="0.567" stroke-opacity="1" stroke-miterlimit="22.926001"/></g></g><g clip-path="url(#1ef9d19ba6)"><g clip-path="url(#08d6d9df93)"><path fill="#91d9f8" d="M 0.519531 13.941406 C 1.15625 -3.730469 15.246094 -7.960938 42.789062 1.246094 C 39.714844 4.894531 35.574219 8.914062 30.09375 10.992188 C 26 12.542969 16.285156 10.472656 10.839844 11.148438 C 6.269531 11.710938 6.039062 13.992188 0.519531 13.941406 Z M 0.519531 13.941406 " fill-opacity="1" fill-rule="evenodd"/></g></g><g clip-path="url(#01ac200d9a)"><g clip-path="url(#03bd83aeb8)"><path stroke-linecap="butt" transform="matrix(0.0881944, 0, 0, -0.0881839, -5.745247, 62.836417)" fill="none" stroke-linejoin="miter" d="M 71.033726 554.466577 C 78.253216 754.864612 238.012111 802.837882 550.310412 698.430683 C 515.45312 657.057614 468.504291 611.476363 406.363528 587.910546 C 359.946195 570.324777 249.79361 593.802001 188.05147 586.13868 C 136.230591 579.759963 133.617402 553.890721 71.033726 554.466577 Z M 71.033726 554.466577 " stroke="#91d9f8" stroke-width="0.567" stroke-opacity="1" stroke-miterlimit="22.926001"/></g></g><path stroke-linecap="butt" transform="matrix(0.0881944, 0, 0, -0.0881839, -5.745247, 62.836417)" fill-opacity="1" fill="#ffffff" fill-rule="nonzero" stroke-linejoin="miter" d="M 494.857643 344.278983 C 494.857643 337.324409 492.46591 331.432955 487.682445 326.60462 C 482.898979 321.776286 477.00823 319.384267 469.965905 319.384267 L 421.732626 319.384267 C 415.664711 319.47286 410.482624 321.466209 406.09778 325.408611 C 401.624354 329.262419 398.922582 334.13505 397.815298 340.070801 L 380.541672 441.953091 L 378.770018 448.819072 L 378.061356 445.319637 L 363.932416 341.443997 C 363.223754 335.242467 360.521982 329.971165 355.827099 325.718687 C 351.087925 321.466209 345.551506 319.384267 339.217843 319.384267 L 287.264091 319.384267 C 280.930428 319.384267 275.438301 321.466209 270.743418 325.718687 C 266.092826 329.971165 263.479637 335.242467 262.903849 341.443997 L 247.313294 452.584287 L 245.585932 441.953091 L 215.024901 271.986853 C 213.961909 266.139696 211.393011 261.222768 207.052458 257.324663 C 202.667615 253.470854 197.529818 251.300319 191.506195 251.300319 L 142.962877 251.300319 C 136.1863 251.300319 130.472716 253.780931 125.644959 258.653562 C 120.817202 263.57049 118.425469 269.417648 118.425469 276.239332 C 118.425469 277.966901 118.514052 279.472987 118.691217 280.6247 L 123.341809 310.34775 L 151.95402 473.049338 L 169.626269 581.354642 C 171.043592 589.017963 174.719774 595.308087 180.654814 600.225014 C 186.634147 605.186239 193.543597 607.666851 201.427457 607.666851 L 263.966842 607.666851 C 272.160741 607.533961 279.424522 604.743273 285.669603 599.294785 C 291.914683 593.802001 295.590865 587.113207 296.653857 579.095513 L 306.353662 496.216485 L 306.353662 496.703748 C 306.353662 495.064772 306.973741 493.558686 308.302482 492.229787 C 309.54264 490.856591 311.137128 490.192141 312.864491 490.192141 C 314.503271 490.192141 315.964885 490.679404 317.11646 491.698227 C 318.312327 492.71705 318.976697 494.001653 319.109571 495.507739 L 333.548551 581.354642 C 334.833 589.017963 338.509182 595.308087 344.532805 600.225014 C 350.512137 605.186239 357.421588 607.666851 365.349739 607.666851 L 427.844832 607.666851 C 435.994441 607.533961 443.125348 604.831866 449.281845 599.516268 C 455.34976 594.289264 459.158816 587.689063 460.531848 579.93715 C 483.386184 424.455915 494.857643 345.917959 494.857643 344.278983 Z M 494.857643 344.278983 " stroke="#00b0f0" stroke-width="0.216" stroke-opacity="1" stroke-miterlimit="22.926001"/><g fill="#00b0f0" fill-opacity="1"><g transform="translate(14.737546, 40.024623)"><g><path d="M 1.5 -1.109375 C 1.5 -1.003906 1.472656 -0.910156 1.421875 -0.828125 C 1.378906 -0.742188 1.3125 -0.679688 1.21875 -0.640625 C 1.132812 -0.597656 1.03125 -0.578125 0.90625 -0.578125 L 0.5 -0.578125 L 0.5 0 L 0.15625 0 L 0.15625 -1.640625 L 0.890625 -1.640625 C 1.085938 -1.640625 1.238281 -1.59375 1.34375 -1.5 C 1.445312 -1.40625 1.5 -1.273438 1.5 -1.109375 Z M 1.15625 -1.109375 C 1.15625 -1.285156 1.054688 -1.375 0.859375 -1.375 L 0.5 -1.375 L 0.5 -0.84375 L 0.859375 -0.84375 C 0.953125 -0.84375 1.023438 -0.863281 1.078125 -0.90625 C 1.128906 -0.957031 1.15625 -1.023438 1.15625 -1.109375 Z M 1.15625 -1.109375 "/></g></g></g><g fill="#00b0f0" fill-opacity="1"><g transform="translate(16.318519, 40.024623)"><g><path d="M 1.28125 0 L 0.90625 -0.625 L 0.5 -0.625 L 0.5 0 L 0.15625 0 L 0.15625 -1.640625 L 0.96875 -1.640625 C 1.164062 -1.640625 1.316406 -1.59375 1.421875 -1.5 C 1.523438 -1.414062 1.578125 -1.296875 1.578125 -1.140625 C 1.578125 -1.023438 1.546875 -0.925781 1.484375 -0.84375 C 1.421875 -0.757812 1.332031 -0.707031 1.21875 -0.6875 L 1.671875 0 Z M 1.234375 -1.140625 C 1.234375 -1.296875 1.132812 -1.375 0.9375 -1.375 L 0.5 -1.375 L 0.5 -0.890625 L 0.953125 -0.890625 C 1.046875 -0.890625 1.113281 -0.910156 1.15625 -0.953125 C 1.207031 -0.992188 1.234375 -1.054688 1.234375 -1.140625 Z M 1.234375 -1.140625 "/></g></g></g><g fill="#00b0f0" fill-opacity="1"><g transform="translate(17.981468, 40.024623)"><g><path d="M 1.75 -0.828125 C 1.75 -0.648438 1.710938 -0.5 1.640625 -0.375 C 1.578125 -0.25 1.484375 -0.148438 1.359375 -0.078125 C 1.234375 -0.015625 1.085938 0.015625 0.921875 0.015625 C 0.660156 0.015625 0.457031 -0.0546875 0.3125 -0.203125 C 0.164062 -0.359375 0.09375 -0.566406 0.09375 -0.828125 C 0.09375 -1.085938 0.164062 -1.289062 0.3125 -1.4375 C 0.457031 -1.582031 0.660156 -1.65625 0.921875 -1.65625 C 1.179688 -1.65625 1.382812 -1.582031 1.53125 -1.4375 C 1.675781 -1.289062 1.75 -1.085938 1.75 -0.828125 Z M 1.40625 -0.828125 C 1.40625 -1.003906 1.359375 -1.140625 1.265625 -1.234375 C 1.179688 -1.335938 1.066406 -1.390625 0.921875 -1.390625 C 0.765625 -1.390625 0.644531 -1.335938 0.5625 -1.234375 C 0.476562 -1.140625 0.4375 -1.003906 0.4375 -0.828125 C 0.4375 -0.648438 0.476562 -0.507812 0.5625 -0.40625 C 0.65625 -0.300781 0.773438 -0.25 0.921875 -0.25 C 1.078125 -0.25 1.195312 -0.296875 1.28125 -0.390625 C 1.363281 -0.492188 1.40625 -0.640625 1.40625 -0.828125 Z M 1.40625 -0.828125 "/></g></g></g><g fill="#00b0f0" fill-opacity="1"><g transform="translate(19.831792, 40.024623)"><g><path d="M 1.609375 -0.828125 C 1.609375 -0.660156 1.578125 -0.515625 1.515625 -0.390625 C 1.453125 -0.265625 1.359375 -0.164062 1.234375 -0.09375 C 1.109375 -0.03125 0.96875 0 0.8125 0 L 0.15625 0 L 0.15625 -1.640625 L 0.75 -1.640625 C 1.019531 -1.640625 1.226562 -1.566406 1.375 -1.421875 C 1.53125 -1.285156 1.609375 -1.085938 1.609375 -0.828125 Z M 1.265625 -0.828125 C 1.265625 -1.003906 1.21875 -1.140625 1.125 -1.234375 C 1.039062 -1.328125 0.914062 -1.375 0.75 -1.375 L 0.5 -1.375 L 0.5 -0.265625 L 0.796875 -0.265625 C 0.941406 -0.265625 1.054688 -0.3125 1.140625 -0.40625 C 1.222656 -0.507812 1.265625 -0.648438 1.265625 -0.828125 Z M 1.265625 -0.828125 "/></g></g></g><g fill="#00b0f0" fill-opacity="1"><g transform="translate(21.553295, 40.024623)"><g><path d="M 0.84375 0.015625 C 0.613281 0.015625 0.4375 -0.0351562 0.3125 -0.140625 C 0.195312 -0.253906 0.140625 -0.410156 0.140625 -0.609375 L 0.140625 -1.640625 L 0.484375 -1.640625 L 0.484375 -0.640625 C 0.484375 -0.515625 0.515625 -0.414062 0.578125 -0.34375 C 0.640625 -0.28125 0.726562 -0.25 0.84375 -0.25 C 0.96875 -0.25 1.0625 -0.28125 1.125 -0.34375 C 1.195312 -0.414062 1.234375 -0.519531 1.234375 -0.65625 L 1.234375 -1.640625 L 1.5625 -1.640625 L 1.5625 -0.625 C 1.5625 -0.414062 1.5 -0.253906 1.375 -0.140625 C 1.25 -0.0351562 1.070312 0.015625 0.84375 0.015625 Z M 0.84375 0.015625 "/></g></g></g><g fill="#00b0f0" fill-opacity="1"><g transform="translate(23.263088, 40.024623)"><g><path d="M 0.890625 -1.375 L 0.890625 0 L 0.546875 0 L 0.546875 -1.375 L 0.03125 -1.375 L 0.03125 -1.640625 L 1.421875 -1.640625 L 1.421875 -1.375 Z M 0.890625 -1.375 "/></g></g></g><g fill="#00b0f0" fill-opacity="1"><g transform="translate(24.621554, 40.024623)"><g><path d="M 1.75 -0.828125 C 1.75 -0.648438 1.710938 -0.5 1.640625 -0.375 C 1.578125 -0.25 1.484375 -0.148438 1.359375 -0.078125 C 1.234375 -0.015625 1.085938 0.015625 0.921875 0.015625 C 0.660156 0.015625 0.457031 -0.0546875 0.3125 -0.203125 C 0.164062 -0.359375 0.09375 -0.566406 0.09375 -0.828125 C 0.09375 -1.085938 0.164062 -1.289062 0.3125 -1.4375 C 0.457031 -1.582031 0.660156 -1.65625 0.921875 -1.65625 C 1.179688 -1.65625 1.382812 -1.582031 1.53125 -1.4375 C 1.675781 -1.289062 1.75 -1.085938 1.75 -0.828125 Z M 1.40625 -0.828125 C 1.40625 -1.003906 1.359375 -1.140625 1.265625 -1.234375 C 1.179688 -1.335938 1.066406 -1.390625 0.921875 -1.390625 C 0.765625 -1.390625 0.644531 -1.335938 0.5625 -1.234375 C 0.476562 -1.140625 0.4375 -1.003906 0.4375 -0.828125 C 0.4375 -0.648438 0.476562 -0.507812 0.5625 -0.40625 C 0.65625 -0.300781 0.773438 -0.25 0.921875 -0.25 C 1.078125 -0.25 1.195312 -0.296875 1.28125 -0.390625 C 1.363281 -0.492188 1.40625 -0.640625 1.40625 -0.828125 Z M 1.40625 -0.828125 "/></g></g></g><g fill="#00b0f0" fill-opacity="1"><g transform="translate(26.471877, 40.024623)"><g><path d="M 1.484375 -0.46875 C 1.484375 -0.3125 1.425781 -0.191406 1.3125 -0.109375 C 1.195312 -0.0234375 1.023438 0.015625 0.796875 0.015625 C 0.585938 0.015625 0.421875 -0.0195312 0.296875 -0.09375 C 0.179688 -0.164062 0.101562 -0.273438 0.0625 -0.421875 L 0.40625 -0.484375 C 0.425781 -0.390625 0.46875 -0.320312 0.53125 -0.28125 C 0.59375 -0.25 0.679688 -0.234375 0.796875 -0.234375 C 1.035156 -0.234375 1.15625 -0.304688 1.15625 -0.453125 C 1.15625 -0.492188 1.140625 -0.53125 1.109375 -0.5625 C 1.085938 -0.59375 1.050781 -0.617188 1 -0.640625 C 0.945312 -0.660156 0.851562 -0.6875 0.71875 -0.71875 C 0.59375 -0.738281 0.503906 -0.757812 0.453125 -0.78125 C 0.410156 -0.800781 0.367188 -0.820312 0.328125 -0.84375 C 0.285156 -0.863281 0.25 -0.890625 0.21875 -0.921875 C 0.195312 -0.960938 0.175781 -1.003906 0.15625 -1.046875 C 0.144531 -1.085938 0.140625 -1.140625 0.140625 -1.203125 C 0.140625 -1.347656 0.195312 -1.457031 0.3125 -1.53125 C 0.425781 -1.613281 0.585938 -1.65625 0.796875 -1.65625 C 0.992188 -1.65625 1.144531 -1.625 1.25 -1.5625 C 1.351562 -1.5 1.421875 -1.394531 1.453125 -1.25 L 1.109375 -1.203125 C 1.097656 -1.273438 1.066406 -1.328125 1.015625 -1.359375 C 0.960938 -1.398438 0.882812 -1.421875 0.78125 -1.421875 C 0.582031 -1.421875 0.484375 -1.351562 0.484375 -1.21875 C 0.484375 -1.175781 0.492188 -1.140625 0.515625 -1.109375 C 0.535156 -1.085938 0.566406 -1.066406 0.609375 -1.046875 C 0.648438 -1.023438 0.738281 -1 0.875 -0.96875 C 1.03125 -0.9375 1.140625 -0.90625 1.203125 -0.875 C 1.273438 -0.851562 1.328125 -0.820312 1.359375 -0.78125 C 1.398438 -0.75 1.429688 -0.707031 1.453125 -0.65625 C 1.472656 -0.601562 1.484375 -0.539062 1.484375 -0.46875 Z M 1.484375 -0.46875 "/></g></g></g><g fill="#00b0f0" fill-opacity="1"><g transform="translate(28.05285, 40.024623)"><g/></g></g><g fill="#00b0f0" fill-opacity="1"><g transform="translate(28.720372, 40.024623)"><g><path d="M 1.609375 -0.828125 C 1.609375 -0.660156 1.578125 -0.515625 1.515625 -0.390625 C 1.453125 -0.265625 1.359375 -0.164062 1.234375 -0.09375 C 1.109375 -0.03125 0.96875 0 0.8125 0 L 0.15625 0 L 0.15625 -1.640625 L 0.75 -1.640625 C 1.019531 -1.640625 1.226562 -1.566406 1.375 -1.421875 C 1.53125 -1.285156 1.609375 -1.085938 1.609375 -0.828125 Z M 1.265625 -0.828125 C 1.265625 -1.003906 1.21875 -1.140625 1.125 -1.234375 C 1.039062 -1.328125 0.914062 -1.375 0.75 -1.375 L 0.5 -1.375 L 0.5 -0.265625 L 0.796875 -0.265625 C 0.941406 -0.265625 1.054688 -0.3125 1.140625 -0.40625 C 1.222656 -0.507812 1.265625 -0.648438 1.265625 -0.828125 Z M 1.265625 -0.828125 "/></g></g></g><g fill="#00b0f0" fill-opacity="1"><g transform="translate(30.430165, 40.024623)"><g><path d="M 0.15625 0 L 0.15625 -1.640625 L 1.4375 -1.640625 L 1.4375 -1.375 L 0.5 -1.375 L 0.5 -0.953125 L 1.375 -0.953125 L 1.375 -0.6875 L 0.5 -0.6875 L 0.5 -0.265625 L 1.484375 -0.265625 L 1.484375 0 Z M 0.15625 0 "/></g></g></g><g fill="#00b0f0" fill-opacity="1"><g transform="translate(32.011137, 40.024623)"><g/></g></g><g fill="#00b0f0" fill-opacity="1"><g transform="translate(32.678659, 40.024623)"><g><path d="M 0.15625 0 L 0.15625 -1.640625 L 0.5 -1.640625 L 0.5 -0.265625 L 1.375 -0.265625 L 1.375 0 Z M 0.15625 0 "/></g></g></g><g fill="#00b0f0" fill-opacity="1"><g transform="translate(34.130812, 40.024623)"><g><path d="M 0.15625 0 L 0.15625 -1.640625 L 0.5 -1.640625 L 0.5 0 Z M 0.15625 0 "/></g></g></g><g fill="#00b0f0" fill-opacity="1"><g transform="translate(34.786623, 40.024623)"><g><path d="M 1.515625 0 L 1.515625 -0.984375 C 1.515625 -1.015625 1.515625 -1.039062 1.515625 -1.0625 C 1.515625 -1.082031 1.519531 -1.175781 1.53125 -1.34375 C 1.46875 -1.132812 1.425781 -0.988281 1.40625 -0.90625 L 1.109375 0 L 0.875 0 L 0.578125 -0.90625 L 0.453125 -1.34375 C 0.460938 -1.164062 0.46875 -1.046875 0.46875 -0.984375 L 0.46875 0 L 0.15625 0 L 0.15625 -1.640625 L 0.609375 -1.640625 L 0.90625 -0.71875 L 0.9375 -0.625 L 0.984375 -0.40625 L 1.0625 -0.671875 L 1.359375 -1.640625 L 1.8125 -1.640625 L 1.8125 0 Z M 1.515625 0 "/></g></g></g><g fill="#00b0f0" fill-opacity="1"><g transform="translate(36.765766, 40.024623)"><g><path d="M 1.5 -1.109375 C 1.5 -1.003906 1.472656 -0.910156 1.421875 -0.828125 C 1.378906 -0.742188 1.3125 -0.679688 1.21875 -0.640625 C 1.132812 -0.597656 1.03125 -0.578125 0.90625 -0.578125 L 0.5 -0.578125 L 0.5 0 L 0.15625 0 L 0.15625 -1.640625 L 0.890625 -1.640625 C 1.085938 -1.640625 1.238281 -1.59375 1.34375 -1.5 C 1.445312 -1.40625 1.5 -1.273438 1.5 -1.109375 Z M 1.15625 -1.109375 C 1.15625 -1.285156 1.054688 -1.375 0.859375 -1.375 L 0.5 -1.375 L 0.5 -0.84375 L 0.859375 -0.84375 C 0.953125 -0.84375 1.023438 -0.863281 1.078125 -0.90625 C 1.128906 -0.957031 1.15625 -1.023438 1.15625 -1.109375 Z M 1.15625 -1.109375 "/></g></g></g><g fill="#00b0f0" fill-opacity="1"><g transform="translate(38.35845, 40.024623)"><g><path d="M 0.15625 0 L 0.15625 -1.640625 L 1.4375 -1.640625 L 1.4375 -1.375 L 0.5 -1.375 L 0.5 -0.953125 L 1.375 -0.953125 L 1.375 -0.6875 L 0.5 -0.6875 L 0.5 -0.265625 L 1.484375 -0.265625 L 1.484375 0 Z M 0.15625 0 "/></g></g></g><g fill="#00b0f0" fill-opacity="1"><g transform="translate(39.939423, 40.024623)"><g><path d="M 1.375 0 L 0.078125 0 L 0.078125 -0.25 L 0.953125 -1.359375 L 0.15625 -1.359375 L 0.15625 -1.640625 L 1.328125 -1.640625 L 1.328125 -1.390625 L 0.453125 -0.265625 L 1.375 -0.265625 Z M 1.375 0 "/></g></g></g><g fill="#00b0f0" fill-opacity="1"><g transform="translate(41.391576, 40.024623)"><g><path d="M 1.3125 0 L 1.171875 -0.421875 L 0.546875 -0.421875 L 0.40625 0 L 0.0625 0 L 0.65625 -1.640625 L 1.0625 -1.640625 L 1.65625 0 Z M 0.859375 -1.375 L 0.84375 -1.359375 C 0.84375 -1.328125 0.835938 -1.289062 0.828125 -1.25 C 0.816406 -1.21875 0.75 -1.023438 0.625 -0.671875 L 1.09375 -0.671875 L 0.9375 -1.140625 L 0.875 -1.296875 Z M 0.859375 -1.375 "/></g></g></g><path fill="#ffffff" d="M 7.226562 10.921875 C 7.222656 10.921875 7.222656 10.921875 7.222656 10.921875 C 6.113281 9.042969 6.234375 7.820312 7.984375 6.386719 C 8.003906 6.371094 8 6.371094 7.980469 6.375 C 6.109375 7.730469 4.980469 7.28125 3.554688 5.628906 C 3.546875 5.621094 3.539062 5.621094 3.542969 5.632812 C 4.867188 7.566406 4.507812 9.152344 2.585938 10.367188 C 2.570312 10.375 2.589844 10.394531 2.601562 10.382812 C 4.734375 8.699219 5.988281 9.003906 7.226562 10.921875 " fill-opacity="1" fill-rule="evenodd"/><path fill="#ffffff" d="M 29.179688 37.601562 C 29.179688 37.605469 29.179688 37.601562 29.179688 37.601562 C 28.617188 36.65625 28.679688 36.039062 29.5625 35.316406 C 29.574219 35.308594 29.570312 35.308594 29.558594 35.308594 C 28.617188 35.992188 28.050781 35.769531 27.328125 34.933594 C 27.324219 34.929688 27.320312 34.929688 27.324219 34.9375 C 27.992188 35.910156 27.8125 36.710938 26.839844 37.324219 C 26.832031 37.328125 26.84375 37.335938 26.847656 37.332031 C 27.925781 36.484375 28.558594 36.636719 29.179688 37.601562 " fill-opacity="1" fill-rule="evenodd"/></svg>