<?xml version="1.0" encoding="UTF-8" standalone="no"?>
<svg
   xmlns:dc="http://purl.org/dc/elements/1.1/"
   xmlns:cc="http://creativecommons.org/ns#"
   xmlns:rdf="http://www.w3.org/1999/02/22-rdf-syntax-ns#"
   xmlns:svg="http://www.w3.org/2000/svg"
   xmlns="http://www.w3.org/2000/svg"
   viewBox="0 0 793.70081 1122.5197"
   height="1122.5197"
   width="793.70081"
   xml:space="preserve"
   id="svg2"
   version="1.1"><metadata
     id="metadata8"><rdf:RDF><cc:Work
         rdf:about=""><dc:format>image/svg+xml</dc:format><dc:type
           rdf:resource="http://purl.org/dc/dcmitype/StillImage" /></cc:Work></rdf:RDF></metadata><defs
     id="defs6"><clipPath
       id="clipPath22"
       clipPathUnits="userSpaceOnUse"><path
         id="path20"
         d="m 123.7348,606.1847 c 0,6.9344 2.4137,12.8458 7.1754,17.6675 4.7619,4.8218 10.6727,7.2357 17.7278,7.2357 h 48.2383 c 6.031,0 11.189,-2.1444 15.6172,-6.0298 4.432,-3.8894 7.2627,-8.7316 8.2611,-14.6526 l 21.1663,-125.5538 1.7486,-6.8743 0.7237,3.4974 14.1098,63.8319 c 1.3495,6.1053 3.4219,11.4736 8.1402,15.738 4.6882,4.2372 10.2509,6.3312 16.5821,6.3312 h 51.9769 c 6.3312,0 11.8466,-2.079 16.5212,-6.3312 4.6718,-4.25 6.5049,-9.6435 7.8392,-15.738 l 15.5568,-71.0676 1.7487,10.6126 28.1651,178.6473 c 0.9311,5.9051 3.5864,10.762 7.9591,14.6526 4.3696,3.8871 9.5255,6.0298 15.5571,6.0298 h 0.8441 0.3615 47.3343 c 6.753,0 12.4818,-2.4732 17.3049,-7.3565 4.8235,-4.8835 7.2363,-10.7331 7.2363,-17.5467 0,-1.7484 -0.1236,-3.257 -0.3016,-4.4016 l -4.6429,-29.727 -26.1754,-171.4118 -17.6672,-126.154 c -1.0797,-7.7139 -5.1154,-13.9456 -11.0347,-18.8733 -5.9547,-4.957 -12.9081,-7.4166 -20.8026,-7.4166 h -62.5292 c -8.1972,0 -15.451,2.882 -21.7068,8.3815 -6.2221,5.47 -10.1985,12.1445 -10.9746,20.1997 l -9.7078,100.7081 v -0.4821 c 0,1.6282 -0.603,3.1354 -1.9299,4.4617 -1.2659,1.3873 -2.8335,2.0506 -4.5822,2.0506 -1.6282,0 -3.0625,-0.4978 -4.221,-1.5075 -1.1932,-1.0397 -1.7825,-2.3017 -1.99,-3.799 L 288.8932,327.1011 c -1.0672,-7.6873 -4.9569,-13.9141 -10.9741,-18.8731 -5.9816,-4.9294 -12.9044,-7.4168 -20.8028,-7.4168 h -62.5292 c -8.1405,0 -15.2538,2.8366 -21.4058,8.1402 -6.088,5.2481 -10.1158,11.7854 -11.2757,19.5968 -23.0763,155.414 -38.1708,276.0083 -38.1708,277.6365" /></clipPath></defs><g
     transform="matrix(1.3333333,0,0,-1.3333333,0,1122.5197)"
     id="g10"><path
       id="path12"
       style="fill:none;stroke:#00b0f0;stroke-width:0.56690001;stroke-linecap:butt;stroke-linejoin:miter;stroke-miterlimit:22.92558479;stroke-dasharray:none;stroke-opacity:1"
       d="m 289.4743,310.4807 c -1.9933,-2.7737 -4.3971,-5.3016 -7.1629,-7.5812 -7.274,-5.9947 -15.77,-8.9932 -25.1954,-8.9932 h -29.1351 l -4.2253,-23.4834 c -1.3958,-7.7573 -4.8892,-14.4609 -10.8003,-19.7198 -6.0503,-5.3824 -13.3384,-8.2782 -21.4665,-8.2782 h -48.5399 c -9.1848,0 -17.1876,3.4764 -23.6307,10 -6.4449,6.5257 -9.8002,14.6177 -9.8002,23.7937 0,1.9188 0.1114,3.8773 0.4076,5.7739 l 4.6703,29.8939 23.4769,133.6196 c -3.6604,26.1946 -7.2445,52.4001 -10.7507,78.6146 -2.6286,19.652 -5.2172,39.3111 -7.7185,58.9802 -0.6871,5.4074 -1.37,10.8153 -2.029,16.2255 -0.2458,2.0151 -0.7447,4.8504 -0.7447,6.8584 0,8.6689 3.0728,16.3477 9.1658,22.5193 6.1609,6.2393 13.8912,9.2894 22.6426,9.2894 h 48.2378 c 7.6578,0 14.4419,-2.717 20.1722,-7.7454 4.3463,-3.8134 7.4769,-8.4044 9.2653,-13.7012 l 37.7912,-9e-4 c 10.3779,-0.1522 19.6492,-3.738 27.4473,-10.5948 7.7533,-6.8167 12.5283,-15.442 13.9139,-25.6835 l 0.7018,-5.9868 h 17.1808 l 1.4425,8.5626 c 1.6492,9.7855 6.4361,17.9512 14.0871,24.2569 7.63,6.2881 16.5713,9.4465 26.458,9.4465 H 390.64 l 7.5724,48.0279 c 1.1702,7.4203 4.578,13.7441 10.19,18.7365 5.6934,5.0644 12.4983,7.7751 20.1473,7.7751 h 48.5399 c 8.6618,0 16.1419,-3.2575 22.2179,-9.4084 6.0812,-6.1566 9.2288,-13.743 9.2288,-22.4 0,-1.8153 -0.1046,-3.6714 -0.385,-5.4669 l -4.6406,-29.7147 -20.6263,-135.0709 c 4.074,-27.7753 8.138,-55.5517 12.1842,-83.3298 2.1611,-14.8365 4.3225,-29.675 6.4409,-44.5178 0.5468,-3.8242 1.0916,-7.6499 1.6177,-11.4772 0.2237,-1.6274 0.6191,-3.7956 0.6191,-5.4261 0,-9.1927 -3.2774,-17.3707 -9.7404,-23.9139 -6.5344,-6.6172 -14.7691,-9.8799 -24.0534,-9.8799 l -16.9529,9e-4 c -1.9239,-2.5756 -4.2004,-4.9368 -6.7731,-7.0793 -7.2533,-6.0372 -15.7921,-9.0139 -25.2204,-9.0139 h -62.5294 c -9.9513,0 -18.8113,3.5462 -26.2661,10.1007 -2.1147,1.859 -4.0235,3.8563 -5.6957,5.9916 z" /><path
       id="path14"
       style="fill:#00b0f0;fill-opacity:1;fill-rule:nonzero;stroke:none"
       d="m 123.7348,606.1847 c 0,6.9344 2.4137,12.8458 7.1754,17.6675 4.7619,4.8218 10.6727,7.2357 17.7278,7.2357 h 48.2383 c 6.031,0 11.189,-2.1444 15.6172,-6.0298 4.432,-3.8894 7.2627,-8.7316 8.2611,-14.6526 l 21.1663,-125.5538 1.7486,-6.8743 0.7237,3.4974 14.1098,63.8319 c 1.3495,6.1053 3.4219,11.4736 8.1402,15.738 4.6882,4.2372 10.2509,6.3312 16.5821,6.3312 h 51.9769 c 6.3312,0 11.8466,-2.079 16.5212,-6.3312 4.6718,-4.25 6.5049,-9.6435 7.8392,-15.738 l 15.5568,-71.0676 1.7487,10.6126 28.1651,178.6473 c 0.9311,5.9051 3.5864,10.762 7.9591,14.6526 4.3696,3.8871 9.5255,6.0298 15.5571,6.0298 h 0.8441 0.3615 47.3343 c 6.753,0 12.4818,-2.4732 17.3049,-7.3565 4.8235,-4.8835 7.2363,-10.7331 7.2363,-17.5467 0,-1.7484 -0.1236,-3.257 -0.3016,-4.4016 l -4.6429,-29.727 -26.1754,-171.4118 -17.6672,-126.154 c -1.0797,-7.7139 -5.1154,-13.9456 -11.0347,-18.8733 -5.9547,-4.957 -12.9081,-7.4166 -20.8026,-7.4166 h -62.5292 c -8.1972,0 -15.451,2.882 -21.7068,8.3815 -6.2221,5.47 -10.1985,12.1445 -10.9746,20.1997 l -9.7078,100.7081 v -0.4821 c 0,1.6282 -0.603,3.1354 -1.9299,4.4617 -1.2659,1.3873 -2.8335,2.0506 -4.5822,2.0506 -1.6282,0 -3.0625,-0.4978 -4.221,-1.5075 -1.1932,-1.0397 -1.7825,-2.3017 -1.99,-3.799 L 288.8932,327.1011 c -1.0672,-7.6873 -4.9569,-13.9141 -10.9741,-18.8731 -5.9816,-4.9294 -12.9044,-7.4168 -20.8028,-7.4168 h -62.5292 c -8.1405,0 -15.2538,2.8366 -21.4058,8.1402 -6.088,5.2481 -10.1158,11.7854 -11.2757,19.5968 -23.0763,155.414 -38.1708,276.0083 -38.1708,277.6365" /><g
       id="g16"><g
         clip-path="url(#clipPath22)"
         id="g18"><g
           id="g24"><path
             id="path26"
             style="fill:#91d9f8;fill-opacity:1;fill-rule:evenodd;stroke:#91d9f8;stroke-width:0.56690001;stroke-linecap:butt;stroke-linejoin:miter;stroke-miterlimit:22.92558479;stroke-dasharray:none;stroke-opacity:1"
             d="M 71.9552,554.6398 C 75.0163,755.1068 233.7398,806.3637 548.1238,708.4111 514.1653,666.3393 468.1304,619.7888 406.5265,594.9731 360.445,576.4096 249.836,597.6193 188.2857,588.7117 136.6132,581.2336 134.5314,555.3147 71.9552,554.6398 Z" /><path
             id="path28"
             style="fill:#91d9f8;fill-opacity:1;fill-rule:evenodd;stroke:#91d9f8;stroke-width:0.56690001;stroke-linecap:butt;stroke-linejoin:miter;stroke-miterlimit:22.92558479;stroke-dasharray:none;stroke-opacity:1"
             d="M 71.0538,554.4867 C 78.2464,754.8477 237.9917,802.8221 550.29,698.4113 515.4712,657.0471 468.4873,611.456 406.3853,587.9146 359.93,570.3043 249.7822,593.7908 188.0609,586.1529 136.2453,579.7417 133.63,553.8702 71.0538,554.4867 Z" /></g></g></g><path
       id="path30"
       style="fill:#ffffff;fill-opacity:1;fill-rule:nonzero;stroke:#00b0f0;stroke-width:0.21600001;stroke-linecap:butt;stroke-linejoin:miter;stroke-miterlimit:22.92558479;stroke-dasharray:none;stroke-opacity:1"
       d="m 494.8557,344.2751 c 0,-6.9347 -2.4117,-12.8438 -7.1753,-17.6675 -4.7639,-4.824 -10.6727,-7.2357 -17.7279,-7.2357 h -48.2383 c -6.0296,0.1204 -11.2153,2.1101 -15.6172,6.0298 -4.4617,3.8591 -7.1753,8.7432 -8.2607,14.6523 l -17.3052,101.9033 -1.7487,6.8743 -0.7234,-3.4974 -14.1101,-103.8935 c -0.7234,-6.2104 -3.437,-11.4565 -8.1402,-15.7376 -4.7035,-4.2211 -10.2507,-6.3312 -16.5818,-6.3312 h -51.9772 c -6.3312,0 -11.8182,2.1101 -16.5212,6.3312 -4.6434,4.2811 -7.2363,9.5272 -7.8389,15.7376 l -15.5571,111.1292 -1.7487,-10.6126 -30.5785,-169.9594 c -1.0559,-5.872 -3.5903,-10.7663 -7.9591,-14.6523 -4.3653,-3.8832 -9.5355,-6.0299 -15.5568,-6.0299 h -0.8442 -0.3617 -47.334 c -6.7431,0 -12.4864,2.4775 -17.3052,7.3562 -4.8189,4.8793 -7.2363,10.7331 -7.2363,17.547 0,1.7482 0.1227,3.2556 0.3019,4.4014 l 4.6425,29.7269 28.5891,162.724 17.667,108.2951 c 1.4471,7.658 5.1256,13.9288 11.0347,18.8733 5.9692,4.9445 12.9039,7.4166 20.8026,7.4166 h 62.5292 c 8.2006,-0.1205 15.4363,-2.8945 21.7071,-8.3815 6.211,-5.487 9.8887,-12.1799 10.9743,-20.1997 l 9.7079,-82.8493 v 0.4822 c 0,-1.628 0.6029,-3.1354 1.9298,-4.4618 1.2659,-1.3872 2.8338,-2.0505 4.5825,-2.0505 1.6279,0 3.075,0.4827 4.2208,1.5074 1.2061,1.0253 1.8694,2.2918 1.9902,3.799 l 14.4711,85.8643 c 1.2662,7.658 4.9445,13.9288 10.9741,18.8733 5.9694,4.9445 12.9041,7.4166 20.8029,7.4166 h 62.5291 c 8.1403,-0.1205 15.2552,-2.8341 21.4058,-8.14 6.09,-5.2461 9.8884,-11.8188 11.2757,-19.597 22.8529,-155.448 34.3094,-234.0162 34.3094,-235.6441 z" /><text
       id="text34"
       style="font-variant:normal;font-weight:bold;font-size:26.94400024px;font-family:Arial;-inkscape-font-specification:Arial-BoldMT;writing-mode:lr-tb;fill:#00b0f0;fill-opacity:1;fill-rule:nonzero;stroke:none"
       transform="matrix(1,0,0,-1,232.2459,258.6844)"><tspan
         id="tspan32"
         y="0"
         x="0 17.971647 36.886398 57.848831 77.302399 96.755966 112.1409 133.10333 151.07498 158.56541 178.01898 195.99063 203.48106 219.94385 227.43428 249.87863 267.85028 285.82193 302.2847">PRODUTOS DE LIMPEZA</tspan></text>
<path
       id="path36"
       style="fill:#ffffff;fill-opacity:1;fill-rule:evenodd;stroke:none"
       d="m 147.06,588.7174 c -0.0201,-0.0304 -0.0269,-0.0117 -0.0363,0.004 -12.5773,21.286 -11.1716,35.1502 8.6692,51.4316 0.1967,0.1615 0.1624,0.1397 -0.0743,0.121 -21.2164,-15.3796 -33.9823,-10.2915 -50.1902,8.4495 -0.0816,0.0944 -0.1485,0.1015 -0.0915,-0.0314 14.9998,-21.9201 10.9335,-39.9048 -10.8902,-53.695 -0.1553,-0.0984 0.0689,-0.2968 0.1831,-0.1673 24.2147,19.0653 38.4168,15.6303 52.4302,-6.112" /><path
       id="path38"
       style="fill:#ffffff;fill-opacity:1;fill-rule:evenodd;stroke:none"
       d="m 396.0023,286.1524 c -0.0102,-0.0153 -0.0136,-0.006 -0.0182,0.002 -6.3416,10.7325 -5.633,17.7227 4.371,25.9319 0.099,0.0813 0.082,0.0706 -0.0374,0.0609 -10.6976,-7.7544 -17.1343,-5.1888 -25.3063,4.2605 -0.0411,0.0476 -0.0748,0.0513 -0.0462,-0.0159 7.5631,-11.0523 5.5128,-20.1203 -5.4907,-27.0734 -0.0785,-0.0496 0.0346,-0.1497 0.0921,-0.0842 12.2091,9.6129 19.37,7.8809 26.4357,-3.0818" /></g></svg>